<svg xmlns="http://www.w3.org/2000/svg" viewBox="0 0 128 128">
<radialGradient id="linux-a" cx="-992.915" cy="-952.952" r="43.267" gradientTransform="matrix(.7 0 0 .35 782.303 444.575)" gradientUnits="userSpaceOnUse"><stop offset="0" stop-opacity=".502"></stop><stop offset="1" stop-opacity="0"></stop></radialGradient><path fill="url(#linux-a)" d="M117.641 111.137c0 8.362-13.557 15.14-30.28 15.14-16.722 0-30.279-6.778-30.279-15.14s13.556-15.14 30.278-15.14c16.723.001 30.281 6.779 30.281 15.14z"></path><radialGradient id="linux-b" cx="-770.661" cy="-951.636" r="43.267" gradientTransform="matrix(.719 0 0 .35 595.327 443.952)" gradientUnits="userSpaceOnUse"><stop offset="0" stop-opacity=".502"></stop><stop offset="1" stop-opacity="0"></stop></radialGradient><path fill="url(#linux-b)" d="M72.546 110.974c0 8.362-13.921 15.14-31.094 15.14s-31.093-6.778-31.093-15.14c0-8.361 13.921-15.14 31.093-15.14 17.173 0 31.094 6.779 31.094 15.14z"></path><path d="M108.095 81.343c-1.534 6.324-9.322 19.527-13.459 25.338-4.138 5.835-3.626 11.089-11.275 9.043-7.625-2.045-9.763-1.673-17.644-1.208-7.833.464-6.137-.233-11.042 1.976-4.882 2.208-21.27-26.78-22.595-32.173-1.301-5.393-1.93-4.743 1.464-10.577 3.395-5.834 3.883-11.6 8.368-18.667 4.487-7.09 9.671-10.693 9.299-16.109-1.464-20.108-2.626-30.15 6.301-34.8 8.507-4.417 15.621-1.79 18.434-.279 1.208.651 3.673 1.906 5.509 4.115 1.836 2.162 3.487 5.44 4.417 9.577 1.906 8.299-.791 5.556 1.371 15.064 2.139 9.484 6.485 14.133 11.787 21.642 5.299 7.508 10.832 19.898 9.065 27.058z"></path><path fill="#fff" d="M57.644 32.088c1.394-.558 1.16-.632 2.089-2.655.744-1.557 1.398-2.227 1.375-4.598 0-2.325-.722-3.115-1.814-4.626-1.045-1.441-2.719-1.511-3.765-1.325-.604.093-1.395.86-1.93 2-.348.767-.628 1.744-.651 2.766-.07 2.743.163 3.79.791 5.649.743 2.185 2.556 3.325 3.905 2.789z"></path><path d="M56.342 22.627c.698 0 1.581.465 1.999 1.092.442.628.767 1.511.767 2.511 0 1.488-.163 3.138-1.046 3.649-.279.163-.884.302-1.232.302-.79 0-.86-.512-1.604-1.279-.255-.279-1.023-1.627-1.023-2.743 0-.697-.163-1.697.441-2.581.42-.649.954-.951 1.698-.951zm-.186 1.247c.272-.421 1.363-.223 1.759.645.397.868.322 2.752.049 2.851-.718.223-.495-.818-1.115-1.76-.619-.892-.966-1.314-.693-1.736z"></path><path fill="#fff" d="M72.089 32.123c3.221-.238 4.732-1.887 5.053-3.868.386-2.384.485-4.455-.834-5.898-.803-.879-1.718-1.218-3.332-1.354-3.053-.258-5.488-.062-6.262 1.314-.295.524-.645 1.759-.538 3.402.151 2.321 1.511 2.51 2.306 3.985.813 1.507 3.213 2.448 3.607 2.419z"></path><path d="M71.778 22.534c1.743 0 2.766 1.558 3.114 3.557.14.907-.07 1.953-.627 2.674-.628.836-1.744 1.348-2.649 1.348-.86 0-1.837.14-2.348-.558-.511-.72-.628-2.325-.628-3.464 0-1.278.373-2.185 1.023-2.906.487-.535 1.37-.651 2.115-.651zm.111.718c.316-.211.843 0 1.45.685.658.738.948 1.317.158 1.739-.606.316-.79-.633-1.16-1.028-.579-.632-1.08-.975-.448-1.396z"></path><path fill="#fc0" d="M63.675 27.786c1.5-.185 3.559.186 4.504.885.885.658 1.502 1.029 2.304 1.275 2.674.884 6.48 1.42 6.337 3.826-.165 2.879-1.604 4.053-3.992 4.772-1.892.576-5.472 2.942-8.125 3.271-1.564.206-2.696.185-3.642-.124-.884-.309-2.263-2.037-3.764-3.25-1.482-1.214-3.086-1.893-2.572-3.477.33-1.07.967-2.201 2.592-3.621.843-.72 2.057-2.551 3.188-3.292.927-.594 2.1-.142 3.17-.265zm.268.932c.327.674 1.163.767 1.721 1.069.535.303.837.372 1.046.256.465-.256.117-1.093-.349-1.395-.441-.302-2.604-.372-2.418.07z"></path><path fill="#fc0" d="M59.066 29.584c-.105.262.629.761.998.42a10.91 10.91 0 011.025-.762c.708-.473.447-.814-.735-.604-1.183.21-1.183.682-1.288.946z"></path><path fill="#fc0" d="M60.381 36.556c-.074.923 2.049-1.384 2.178-1.587.276-.498 1.199-1.9 1.347-2.491.276-1.033.775-1.79.461-2.878-.111-.35-.885-.442-1.236-.221-.996.59-.848 1.31-.959 1.974-.37 1.882-1.661 3.782-1.791 5.203z"></path><path fill="#fc0" d="M67.709 32.716c-1.022 1.116-1.743 2.185-2.324 2.906-.605.744-2.093 1.627-1.349 2.487.627.767 3.208-.627 5.208-2.115 1.975-1.488 5.067-2.813 3.557-4.509-.791-.86-2.651-.675-3.371-.209-.559.348-.884.534-1.721 1.44z"></path><path fill="#fff" d="M69.894 56.148c.278-.907 9.322-3.045 10.81-2.348 1.464.697 8.484 10.903 7.23 11.461-1.255.535-3.953-3.395-7.881-5.208-3.929-1.813-10.438-2.975-10.159-3.905z"></path><path fill="#fff" d="M58.503 70.05c.93.046.047 5.253.047 10.624 0 5.37.72 7.252.047 7.926-.674.675-1.836-1.743-1.836-7.113-.001-5.37.813-11.484 1.742-11.437z"></path><path fill="#fff" d="M60.538 55.693c.56.062 4.015-.716 4.14-.405.125.249-2.148.935-2.895 1.712-.249.25-.902.84-1.308.778-.311-.031-.498-.685-.965-1.183-1.121-1.121-1.836-1.027-1.619-1.463.188-.341 1.682.468 2.647.561z"></path><path fill="#e6e6e6" d="M86.989 118.694c-.116-1.396.72-3.394 1.674-4.859 1.535-2.372 6.462-6.834 7.928-8.834 1.371-1.836 3.116-4.183 4.673-6.183 1.394-1.788 2.789-3.487 2.789-5.276 0-1.093-.535-1.813-1.116-2.464-.953-1.023-2.301-1.464-3.836-1.464-2.789 0-5.671 1.813-8.19 1.813-2.418 0-4.184-1.163-5.671-2.418-1.372-1.163-2.371-2.789-4.183-2.789-1.813 0-3.023 1.023-3.674 2.464-.535 1.163-.535 2.464-.535 3.836v.116c0 3.673-.116 6.462.581 9.043.581 2.185 1.371 4.184 1.371 6.462 0 1.372-.209 2.464-.209 3.626 0 1.372.116 2.789.628 4.184.628 1.65 1.65 2.882 3.209 3.789 1.813 1.023 4.417 1.65 6.858 1.65z"></path>
</svg>
