<svg width="300" height="300" viewBox="0 0 300 300" fill="none" xmlns="http://www.w3.org/2000/svg">
<rect x="4.5" y="4.5" width="291" height="291" rx="43.5" fill="white"/>
<rect x="4.5" y="4.5" width="291" height="291" rx="43.5" stroke="url(#paint0_linear_8325_96)" stroke-width="9"/>
<path d="M181.781 215.464L81.7665 201.253L74.0996 207.903L181.781 223.198L225.901 184.921L218.244 183.837L181.781 215.464Z" fill="#111111"/>
<path d="M181.781 192.261L225.901 153.984L218.244 152.899L181.781 184.517L146.095 179.45L97.0809 172.494L81.7665 170.315L74.0996 176.965L89.4237 179.134L74.0996 192.424L181.781 207.719L225.901 169.452L218.244 168.367L181.79 199.995L130.771 192.74L138.428 186.1L181.781 192.261Z" fill="#111111"/>
<path d="M181.781 169.045L81.7665 154.834L74.0996 161.484L181.781 176.779L225.901 138.512L218.244 137.428L181.781 169.045Z" fill="#111111"/>
<path d="M218.244 106.478L202.92 119.767L181.781 138.105L140.443 132.232L81.7665 123.894L74.0996 130.543L132.776 138.872L125.119 145.522L81.7569 139.362L74.0996 146.011L181.781 161.307L225.901 123.04L210.577 120.861L225.901 107.562L218.244 106.478Z" fill="#111111"/>
<path d="M225.901 92.0971L118.22 76.8018L74.0996 115.069L181.781 130.374L225.901 92.0971Z" fill="#111111"/>
<defs>
<linearGradient id="paint0_linear_8325_96" x1="150" y1="0" x2="150" y2="300" gradientUnits="userSpaceOnUse">
<stop stop-color="#320F1E"/>
<stop offset="0.125625" stop-color="#C83228"/>
<stop offset="0.250625" stop-color="#FB873F"/>
<stop offset="0.375625" stop-color="#D2DC91"/>
<stop offset="0.500625" stop-color="#5A8250"/>
<stop offset="0.620625" stop-color="#002314"/>
<stop offset="0.740625" stop-color="#00143C"/>
<stop offset="0.860625" stop-color="#2873D7"/>
<stop offset="0.970625" stop-color="#9BC3FF"/>
</linearGradient>
</defs>
</svg>
